<svg xmlns="http://www.w3.org/2000/svg" width="150.66mm" height="42.15mm" viewBox="0 0 427.06 119.47"><title>Kodiak Logo Navy SVG 150px</title>
<path d="M388.32,45.43l28-42.9H385.66L370.41,24.46V2.53H345.1V86.44l-6-1.82-.06-.06-26.16-82H294.16l-25,78.65-7.08-3.11V2.53H235.5V66l-8.11-3.7c1.94-24.6.84-37.58-14.41-51.14-9.48-8.37-26.15-8.56-52.76-8.5V70.08l-19,13.83c7.4-8.89,11.87-21.09,11.87-34.66C153.08,22.06,134.59,0,111.81,0S70.6,22.06,70.6,49.25a55.21,55.21,0,0,0,9.15,30.89L73.39,83,51.46,45.49l28.29-43h-31l-15,22-.39-22H7.72V112.46L0,116v3.51L105.06,77.61l42.57,26.74.26-1.62-9.41-7.47L170,77.35l53.41,15.06L210.06,85,226.28,69.7l67.88,34.13,29.27-10.06,103.63,18ZM33.74,100.78h-.06V67.49l15.7,26.28Zm78.07-31.54c-9.34,0-16.94-8.95-16.94-20s7.6-20,16.94-20,16.94,9,16.94,20S121.16,69.24,111.81,69.24Zm73.72.65V28.62c2.6,0,18.56,0,18.56,20.63S188.13,69.89,185.53,69.89Zm118-20.12,5.78,17.65H297.79Zm-8,43.42-5.26-2.4,1.36-3.31H311Zm74.82,1.42V67.23l.07.13,19.53,33Z" style="fill: #fff;"></path></svg>